<?xml version="1.0" encoding="utf-8"?>
<!-- Generator: Adobe Illustrator 18.0.0, SVG Export Plug-In . SVG Version: 6.00 Build 0)  -->
<!DOCTYPE svg PUBLIC "-//W3C//DTD SVG 1.1//EN" "http://www.w3.org/Graphics/SVG/1.1/DTD/svg11.dtd">
<svg version="1.1" id="Layer_1" xmlns="http://www.w3.org/2000/svg" xmlns:xlink="http://www.w3.org/1999/xlink" x="0px" y="0px"
	 viewBox="0 0 525 200" enable-background="new 0 0 525 200" xml:space="preserve">
<g>
	<path fill="#282828" d="M245.5,51.5c0,4.6-3.7,8.3-8.3,8.3h-13.6V29.3h11.8c5,0,9.1,4.1,9.1,9.1c0,2.4-1,4.6-2.5,6.3
		C244.1,46.2,245.5,48.7,245.5,51.5z M228,43.1h7.4c2.6,0,4.7-2.1,4.7-4.7s-2.1-4.7-4.7-4.7H228V43.1z M241,51.5
		c0-2.1-1.7-3.8-3.8-3.8H228v7.7h9.1C239.3,55.3,241,53.6,241,51.5z"/>
	<path fill="#282828" d="M271.3,47.2v1.2c0,5.4-3.7,10-8.7,11.4c-1,0.3-2,0.4-3.1,0.4c-1.1,0-2.1-0.1-3.1-0.4
		c-5-1.4-8.7-5.9-8.7-11.4v-1.2c0-6.5,5.3-11.8,11.8-11.8C266,35.4,271.3,40.7,271.3,47.2z M266.8,47.2c0-4-3.3-7.3-7.3-7.3
		c-4,0-7.3,3.3-7.3,7.3v1.2c0,4,3.3,7.3,7.3,7.3c4,0,7.3-3.3,7.3-7.3V47.2z"/>
	<path fill="#282828" d="M297.1,47.2v1.2c0,5.4-3.7,10-8.7,11.4c-1,0.3-2,0.4-3.1,0.4c-1.1,0-2.1-0.1-3.1-0.4
		c-5-1.4-8.7-5.9-8.7-11.4v-1.2c0-6.5,5.3-11.8,11.8-11.8C291.8,35.4,297.1,40.7,297.1,47.2z M292.6,47.2c0-4-3.3-7.3-7.3-7.3
		c-4,0-7.3,3.3-7.3,7.3v1.2c0,4,3.3,7.3,7.3,7.3c4,0,7.3-3.3,7.3-7.3V47.2z"/>
	<path fill="#282828" d="M318.6,55.3v4.5c-4.2,0-8.2-2.1-10.6-5.6l-1.1-1.6l-2.2,2.9v4.3h-4.5V29.3h4.5v18.9l8.2-10.5h5.7l-8.8,11.2
		l0,0l1.9,2.8C313.3,53.9,315.9,55.3,318.6,55.3z"/>
	<path fill="#282828" d="M349.4,35.5v23.4c0,5.9-4.8,10.7-10.7,10.7c-1.6,0-3.1-0.3-4.6-1l1.9-4.1c0.8,0.4,1.7,0.6,2.7,0.6
		c3.5,0,6.3-2.8,6.3-6.3v-0.8c-1.8,1.3-3.9,2-6.3,2h-0.2c-4.8,0-8.8-3.9-8.8-8.8V35.5h4.5v15.8c0,2.4,1.9,4.3,4.3,4.3h0.2
		c3.5,0,6.3-2.8,6.3-6.3V35.5H349.4z"/>
	<path fill="#282828" d="M376.1,47.2v1.2c0,5.4-3.7,10-8.7,11.4c-1,0.3-2,0.4-3.1,0.4c-1.1,0-2.1-0.1-3.1-0.4
		c-5-1.4-8.7-5.9-8.7-11.4v-1.2c0-6.5,5.3-11.8,11.8-11.8C370.8,35.4,376.1,40.7,376.1,47.2z M371.7,47.2c0-4-3.3-7.3-7.3-7.3
		c-4,0-7.3,3.3-7.3,7.3v1.2c0,4,3.3,7.3,7.3,7.3c4,0,7.3-3.3,7.3-7.3V47.2z"/>
	<path fill="#282828" d="M398.8,35.6v24.2h-4.5v-1.7c-1.8,1.3-3.9,2-6.3,2h-0.2c-4.8,0-8.8-3.9-8.8-8.8V35.6h4.5v15.8
		c0,2.4,1.9,4.3,4.3,4.3h0.2c3.5,0,6.3-2.8,6.3-6.3V35.6H398.8z"/>
	<path fill="#282828" d="M419.5,36.5l-2.1,4c-0.7-0.3-1.4-0.5-2.2-0.5h-1.5c-3.5,0-6.3,2.8-6.3,6.3v13.6H403V35.6h4.5v1.9
		c1.8-1.3,3.9-2,6.3-2h1.5C416.7,35.4,418.2,35.8,419.5,36.5z"/>
</g>
<text transform="matrix(1 0 0 1 221.3423 59.7634)" display="none" fill="#282828" font-family="'SajolaRegPersonalUse'" font-size="43.5132">Book your</text>
<g>
	<path fill="#282828" d="M273.6,126.8v-19.7c0-9.8-8-17.8-17.8-17.8h-5.2c-9.8,0-17.8,8-17.8,17.8v37.7c0,9.8,8,17.8,17.8,17.8h10
		c7.2,0,13-5.8,13-13v-5.7h14.3v5.7c0,15-12.2,27.3-27.3,27.3h-10c-17.7,0-32-14.4-32-32v-37.7c0-17.7,14.4-32,32-32h5.2
		c17.7,0,32,14.4,32,32v19.7H273.6z"/>
	<path fill="#282828" d="M371.3,134.5v3.7c0,17.3-11.7,31.8-27.7,36.2c-3.1,0.9-6.4,1.3-9.8,1.3s-6.7-0.5-9.8-1.3
		c-15.9-4.3-27.6-18.9-27.6-36.2v-3.7c0-20.7,16.8-37.5,37.5-37.5C354.5,97,371.3,113.8,371.3,134.5z M357.1,134.5
		c0-12.8-10.4-23.2-23.2-23.2s-23.2,10.4-23.2,23.2v3.7c0,12.8,10.4,23.2,23.2,23.2s23.2-10.4,23.2-23.2V134.5z"/>
	<path fill="#282828" d="M453.3,134.5v3.7c0,17.3-11.7,31.8-27.7,36.2c-3.1,0.9-6.4,1.3-9.8,1.3s-6.7-0.5-9.8-1.3
		c-15.9-4.3-27.6-18.9-27.6-36.2v-3.7c0-20.7,16.8-37.5,37.5-37.5C436.5,97,453.3,113.8,453.3,134.5z M439,134.5
		c0-12.8-10.4-23.2-23.2-23.2s-23.2,10.4-23.2,23.2v3.7c0,12.8,10.4,23.2,23.2,23.2S439,151,439,138.2V134.5z"/>
	<path fill="#282828" d="M521.8,160.2v14.3c-13.5,0-26.1-6.7-33.6-17.9l-3.4-5l-7.1,9.1v13.7h-14.3V77.5h14.3v60.1l26.1-33.4h18.1
		l-27.9,35.6l0,0l5.9,8.8C504.9,155.9,513.1,160.2,521.8,160.2z"/>
</g>
<text transform="matrix(1 0 0 1 213.4317 174.3659)" display="none" fill="#282828" font-family="'SajolaRegPersonalUse'" font-size="138.4511">Cook</text>
<path fill="#E5E7EB" d="M25.9,83.4c2.9,3.5,7,6,11.5,6.8c2.2,0.4,4.8,0.4,7-0.2c2.2-0.6,4.5-2.3,6.9-1.5c1.4,0.4,2.4,1.6,3.2,2.8
	c0.3,0.4,0.6,0.9,0.6,1.3c0,0.8-0.8,1.4-1.5,1.8c-3.8,2.2-8.2,3.1-12.5,3.9c-3.4,0.7-7,1.4-10.4,0.9c-1-0.1-2-0.4-2.9-0.9
	c-1.4-0.8-2.4-2-3.5-3.2c-1.5-1.7-3-3.3-4.7-4.7c-1.1-0.9-2.2-1.8-3.1-2.9c-2.9-3.3-3.7-8.1-3.2-12.4c0.6-4.4,2.4-8.5,4.2-12.5
	c0.3-0.6,0.5-1.1,1-1.6c2.7-2.7,1.4,5.4,1.5,6.5C20.1,73.2,22.2,79,25.9,83.4z"/>
<path fill="#E5E7EB" d="M77.7,87.5c1.8-0.2,3.7-0.5,5.2,0.4c1.5,0.9,2.1,3.5,0.6,4.4c-0.5,0.3-1.2,0.3-1.8,0.3c-5,0.1-10-0.3-15-0.6
	c-3.3-0.2-6.6-0.4-9.7-1.5c-2.4-0.8-4.6-2-6.6-3.5c-2.8-2-5.5-4.3-7.7-6.9c-0.7-0.8-2.3-2.4-0.3-2.8c1.1-0.2,3.2,1.9,4.2,2.5
	c5.9,3.7,12.6,6.3,19.4,7.3C69.8,87.8,73.8,87.9,77.7,87.5z"/>
<path fill="#E5E7EB" d="M130,88.1c0.8-0.2,3.9-0.2,4.7-0.1c0.7,0.1,1.8,1.1,2.3,1.6c1.9,1.6,0.7,2.6,2.1,4.8c-2.6,1.8-6.1,1-9.2,0.3
	c-9.1-1.9-18.5-1.5-27.8-0.7c-4,0.4-8.1,0.8-11.9-0.4c-2.5-0.8-4.9-2.4-6.6-4.5c-1.8-2.2-4.7-4.5-1.5-3.7
	C103.7,90.1,125.5,89.1,130,88.1z"/>
<path fill="#E5E7EB" d="M131.1,79.6c1.1,6.1,5.9,11.1,11.6,13.5c5.7,2.4,12.1,2.6,18.2,1.6c6.3-1,12.4-3,17.8-6.3
	c2-1.2,4-2.7,5.3-4.8c1.5-2.6,1.7-5.7,1.9-8.7c6.1,2.7,9.9,9.8,8.7,16.4c-0.3,1.7-0.9,3.3-1.9,4.6c-2.1,2.7-5.7,3.7-9.1,4.6
	c-5.7,1.4-11.7,2.9-17.3,1.2c-2.1-0.6-4.1-1.7-6.2-2.5c-4.2-1.5-8.8-1.4-13.2-1.8c-1.4-0.1-2.7-0.3-4-0.9c-3.1-1.4-4.8-4.7-6.2-7.7"
	/>
<path fill="#E5E7EB" d="M155.3,39.2c3.1-0.3,6.3-0.6,9.4,0.2c2,0.5,3.8,1.5,5.5,2.7c9.1,6.1,14.9,16.2,17.9,26.7
	c1.4-8.9,0.4-18.1-2.6-26.6c-1.5-4.2-3.7-8.4-7.5-10.9c-2.3-1.5-5-2.3-7.8-2.8c-5.1-0.9-10.3-1.1-15.3,0.4c-1.2,0.4-2.4,0.8-3.4,1.5
	c-1.1,0.8-1.9,1.8-3,2.6c-1.3,0.9-2.8,1.5-4.2,2.1c-4.7,2.2-8.2,6-11.5,9.9C140,41.8,147.3,40.1,155.3,39.2z"/>
<path fill="#E5E7EB" d="M92.5,42.7c7.9-11.2,22-17,35.7-17c7.2,0,14.7,1.7,20,6.5c0.3-3.7-2.6-6.7-5.5-9c-3.9-2.9-8.2-5.4-12.9-6.5
	c-4.7-1.1-9.9-0.9-14.2,1.4c-2,1-3.8,2.4-5.5,3.8c-2,1.6-3.8-1.1-5.8,0.5c-2,1.6-5.2,4.1-6.6,6.2c-1.5,2.1-5.4,8.9-4.7,11.3"/>
<path fill="#E5E7EB" d="M62.6,34.4c8.1-6.7,18.4-10.3,28.7-12.6c5.1-1.1,10.4-1.9,15.5-0.8c-2.7-5.5-8.7-8.9-14.7-9.9
	c-6.1-1-12.3,0-18.3,1.2c-2.5,0.5-5.1,1.1-7.5,2.1c-2.7,1.2-5.1,2.9-7.5,4.6c-2.9,2.1-5.7,4.4-8,7.1c-4,4.8-6.3,11.2-5.7,17.4
	c0.3,3.3,1.3,6.4,2.3,9.5c0.7,2.2,1.4,4.4,2.1,6.6c0.8-4.8,1.2-9.2,3.5-13.7C55.5,41.5,58.9,38.1,62.6,34.4z"/>
<path fill="#292929" d="M51.7,67.1c0,0-0.9-1.5-2.2-4.1c-0.7-1.3-1.5-3-2.3-4.9c-0.8-1.9-1.7-4.2-2.4-6.7c-0.7-2.5-1.4-5.4-1.5-8.5
	c-0.2-3.1,0.1-6.5,1.1-9.9c0.1-0.4,0.3-0.8,0.4-1.3c0.1-0.4,0.3-0.8,0.5-1.2l0.6-1.2l0.1-0.2l0,0l0.1-0.2l0-0.1l0.2-0.3l0.3-0.5
	l0.6-1.1c0.2-0.4,0.4-0.7,0.7-1.1c0.6-0.8,1.2-1.5,1.7-2.3c2.4-2.8,5.2-5.1,8.3-7.1c3.1-1.9,6.3-3.5,9.6-4.7c1.7-0.5,3.3-1.1,5-1.4
	c0.8-0.2,1.7-0.4,2.5-0.5c0.8-0.1,1.7-0.2,2.5-0.4c0.8-0.1,1.7-0.2,2.5-0.2c0.8,0,1.6-0.1,2.4-0.1c1.6,0,3.2,0,4.7,0.2
	c0.8,0.1,1.5,0.2,2.3,0.3c0.7,0.2,1.5,0.3,2.2,0.5c0.4,0.1,0.7,0.2,1,0.2c0.3,0.1,0.7,0.2,1,0.3c0.7,0.2,1.3,0.4,1.9,0.7
	c0.7,0.2,1.2,0.5,1.8,0.7c0.6,0.3,1.2,0.6,1.7,0.9c1.1,0.6,2,1.3,2.9,1.9c1.7,1.3,3,2.8,3.8,4.1c0.9,1.3,1.4,2.4,1.6,3.1
	c0.2,0.4,0.2,0.7,0.3,0.9c0.1,0.2,0.1,0.3,0.1,0.3s-0.2-0.4-0.7-1c-0.4-0.7-1.2-1.6-2.2-2.6c-1-1-2.5-2-4.2-3
	c-0.9-0.5-1.8-0.9-2.9-1.3c-0.5-0.2-1-0.4-1.6-0.5c-0.5-0.1-1.2-0.4-1.7-0.4c-0.6-0.1-1.2-0.2-1.8-0.3c-0.3-0.1-0.6-0.1-0.9-0.2
	c-0.3,0-0.6-0.1-1-0.1c-0.6-0.1-1.3-0.1-2-0.2c-0.7,0-1.4,0-2,0c-1.4-0.1-2.8,0.1-4.2,0.2c-0.7,0-1.4,0.2-2.2,0.3
	c-0.7,0.1-1.5,0.2-2.2,0.4c-3,0.5-6,1.5-8.9,2.5c-2.9,1.2-5.8,2.6-8.5,4.3c-2.7,1.7-5.1,3.7-7.2,5.9c-0.4,0.6-0.9,1.1-1.4,1.6
	c-0.2,0.2-0.5,0.6-0.7,0.9l-0.7,1l-0.3,0.5l-0.2,0.3l0,0.1c-0.1,0.1,0.1-0.1,0.1-0.1l0,0l-0.1,0.1l-0.5,1c-0.2,0.3-0.3,0.6-0.5,1
	l-0.4,1c-1,2.7-1.5,5.5-1.6,8.2c-0.1,2.7,0.1,5.4,0.5,7.8c0.4,2.4,0.8,4.7,1.3,6.7c0.5,2,0.9,3.7,1.3,5.2c0.4,1.4,0.7,2.6,0.9,3.3
	C51.6,66.7,51.7,67.1,51.7,67.1z"/>
<path fill="#292929" d="M89.9,49.5c0,0,0.1-0.3,0.2-0.9c0.1-0.6,0.3-1.5,0.5-2.6c0.5-2.3,1.1-5.5,2.5-9.3c0.7-1.9,1.5-3.9,2.6-6
	c1.1-2,2.4-4.2,4.2-6.1l0.6-0.7c0.2-0.2,0.5-0.5,0.7-0.7c0.5-0.5,1-0.9,1.5-1.4c0.5-0.4,1.1-0.8,1.6-1.2c0.5-0.4,1.1-0.8,1.7-1.1
	c0.6-0.4,1.2-0.7,1.8-1.1c0.6-0.3,1.3-0.6,1.9-0.9c0.3-0.1,0.6-0.3,1-0.4l1-0.3c0.7-0.2,1.3-0.5,2-0.7c2.7-0.7,5.5-1.1,8.2-1.1
	c2.7,0,5.4,0.3,8,0.9c2.5,0.5,4.9,1.6,7,2.6c1,0.5,2,1.1,3,1.7c0.9,0.7,1.8,1.3,2.6,1.9c1.6,1.3,2.9,2.7,3.8,4.1
	c1,1.4,1.6,2.7,2,3.8c0.4,1.1,0.5,2,0.6,2.7c0.1,0.6,0.1,0.9,0.1,0.9s-0.1-0.3-0.3-0.9c-0.2-0.6-0.6-1.4-1.2-2.3
	c-0.6-1-1.4-2-2.5-3.1c-0.5-0.5-1.1-1.1-1.8-1.6c-0.3-0.3-0.7-0.5-1-0.8c-0.3-0.2-0.7-0.5-1.2-0.8c-0.8-0.4-1.7-0.9-2.6-1.4
	c-0.9-0.4-1.9-0.9-2.8-1.2c-0.5-0.2-1-0.3-1.5-0.5l-0.8-0.3l-0.8-0.2c-0.5-0.1-1.1-0.3-1.6-0.4c-0.5-0.1-1.1-0.2-1.7-0.3
	c-1.1-0.2-2.3-0.3-3.5-0.4c-0.6-0.1-1.2,0-1.8,0c-0.6,0-1.2-0.1-1.8,0c-0.6,0-1.2,0.1-1.8,0.1c-0.6,0-1.2,0.2-1.8,0.2
	c-1.2,0.1-2.4,0.5-3.5,0.7c-0.6,0.2-1.1,0.4-1.7,0.5l-0.9,0.3c-0.3,0.1-0.6,0.2-0.8,0.4l-1.6,0.7c-0.5,0.3-1,0.6-1.6,0.9
	c-0.3,0.1-0.5,0.3-0.8,0.4l-0.7,0.5c-0.5,0.3-1,0.6-1.4,1c-0.4,0.4-0.9,0.7-1.3,1.1c-0.2,0.2-0.4,0.3-0.6,0.5l-0.6,0.7
	c-0.4,0.4-0.8,0.8-1.2,1.2c-0.4,0.4-0.7,0.9-1.1,1.3c-0.7,0.9-1.4,1.7-2,2.6c-1.2,1.8-2.2,3.6-3.2,5.3c-1.8,3.4-3.1,6.4-4,8.5
	C90.5,48.3,89.9,49.5,89.9,49.5z"/>
<path fill="#292929" d="M165,131.4c-2.8-0.3-5.6-0.7-8.3-1.2c-1.4-0.2-2.7-0.4-4.1-0.7c-1.4-0.2-2.7-0.5-4.1-0.8
	c-2.7-0.4-5.5-1-8.2-1.5L132,126l-8.3-1l-8.3-0.8l-8.3-0.5l-8.3-0.3l-8.3,0l-8.3,0.2l-8.3,0.5l-8.3,0.8l-8.3,1.1
	c-2.8,0.4-5.5,0.9-8.3,1.4c-2.7,0.6-5.5,1.2-8.2,1.8c-2.7,0.7-5.4,1.4-8.1,2.2l-1,0.3l-0.3-1L24,101.5l-0.2-0.9l0.9-0.4
	c2.9-1.1,5.9-2,9-2.8c3.1-0.7,6.1-1.3,9.2-1.9l9.2-1.6l9.3-1.3l9.3-1l9.4-0.7l9.4-0.4l9.4-0.1l9.4,0.2l9.4,0.5l9.3,0.8l9.3,1.1
	l9.3,1.4l9.2,1.7l9.2,1.9c3,0.7,6.1,1.4,9.1,2.1l1,0.2l-0.3,1l-7.7,29.9L165,131.4z M164.5,129.1l7.2-28.1l0.7,1.2
	c-3-0.8-6-1.5-9-2.3l-9.1-1.9l-9.2-1.5l-9.2-1.2l-9.2-1l-9.3-0.7l-9.3-0.4l-9.3-0.1l-9.3,0.2L80.3,94L71,94.8l-9.2,1.1l-9.2,1.3
	l-9.1,1.6c-3,0.6-6,1.3-9.1,1.9c-3,0.7-6.1,1.2-9.2,1.6l0.7-1.2l7.5,29.1l-1.2-0.7c2.8-0.5,5.5-1.1,8.2-1.7c2.8-0.5,5.5-1,8.3-1.6
	c2.8-0.5,5.5-1,8.3-1.5l8.3-1.3l8.3-1l8.4-0.8l8.4-0.6l8.4-0.3l8.4,0l8.4,0.2l8.4,0.5l8.4,0.8l8.4,1.1c2.8,0.5,5.6,0.9,8.3,1.4
	c1.4,0.3,2.8,0.6,4.1,0.9c1.4,0.3,2.7,0.7,4.1,1C159.8,127.4,162.2,128.2,164.5,129.1z"/>
<path fill="#292929" d="M26.8,110.6c0,0,0.2-0.1,0.6-0.2c0.4-0.1,1-0.3,1.8-0.5c1.5-0.4,3.7-0.9,6.4-1.4c1.3-0.3,2.8-0.5,4.3-0.7
	c1.5-0.2,3.1-0.5,4.8-0.6c1.7-0.2,3.4-0.4,5.1-0.5c1.7-0.2,3.5-0.2,5.3-0.3c1.8-0.1,3.6-0.1,5.3-0.1c1.7,0,3.5,0,5.1,0.1
	c1.7,0,3.3,0.2,4.8,0.2c1.5,0.1,3,0.2,4.3,0.3c1.3,0.1,2.5,0.2,3.6,0.4c1.1,0.1,2,0.3,2.8,0.4c1.5,0.2,2.4,0.3,2.4,0.3
	s-0.9-0.1-2.4-0.2c-0.8,0-1.7-0.1-2.8-0.2c-1.1-0.1-2.3-0.1-3.6-0.1c-1.3,0-2.8-0.1-4.3,0c-1.5,0-3.1,0-4.8,0.1
	c-1.6,0.1-3.3,0.2-5.1,0.3c-1.7,0.2-3.5,0.3-5.2,0.5c-1.7,0.2-3.5,0.4-5.2,0.7c-1.7,0.3-3.4,0.5-5,0.8c-1.6,0.3-3.2,0.6-4.6,1
	c-1.5,0.3-2.8,0.7-4.1,1c-2.5,0.7-4.6,1.3-6,1.8c-0.7,0.2-1.3,0.4-1.6,0.6c-0.4,0.1-0.6,0.2-0.6,0.2L26.8,110.6z"/>
<g>
	<path fill="#FFFFFF" d="M109,115.9c0,0,36.3-2.7,57.3,6.7"/>
	<path fill="#292929" d="M109,115.9c0,0,3.6-0.4,9.1-0.6c1.4,0,2.8-0.1,4.4-0.1c1.6,0,3.2-0.1,4.9,0c1.7,0,3.5,0,5.3,0.1
		c1.8,0,3.6,0.2,5.4,0.3c1.8,0.1,3.6,0.3,5.4,0.4c1.8,0.2,3.6,0.4,5.3,0.6c1.7,0.3,3.3,0.5,4.9,0.8c1.5,0.3,3,0.7,4.4,0.9
		c1.3,0.4,2.6,0.7,3.7,1c1.1,0.3,2,0.7,2.8,0.9c1.5,0.6,2.4,0.9,2.4,0.9l-1.2,2.7c0,0-0.8-0.3-2.2-1c-0.7-0.3-1.6-0.7-2.6-1
		c-1-0.3-2.2-0.7-3.5-1.2c-1.3-0.4-2.7-0.7-4.2-1.1c-1.5-0.4-3.1-0.7-4.8-1c-1.7-0.3-3.4-0.6-5.1-0.9c-1.8-0.2-3.6-0.5-5.4-0.7
		c-1.8-0.2-3.6-0.4-5.4-0.5c-1.8-0.2-3.5-0.3-5.2-0.4c-1.7-0.1-3.3-0.2-4.9-0.2c-1.6-0.1-3-0.1-4.4-0.1
		C112.6,115.8,109,115.9,109,115.9z"/>
</g>
<path fill="#292929" d="M185.2,54.4c1.2,6.2,1.2,12.7,1.3,19.3l1.8,1.7c0.4-2.3,0.8-4.6,1.2-7c0.6-4.8,1-9.7,0.6-14.8
	c-0.4-5-1.7-10.1-4.3-14.7c-1.3-2.3-3-4.5-4.9-6.4c-2-1.8-4.3-3.4-6.8-4.5c-9.9-4.5-21.6-2.7-30.1,2.9c-4.3,2.7-8,6.2-11.1,9.9
	c-3.1,3.8-5.8,7.9-8,12.2c6.5-7.1,13.4-13.9,21.5-18c2-1,4.1-1.8,6.2-2.5c2.1-0.6,4.3-1,6.4-1.1c4.3-0.3,8.7,0.4,12.5,2.1
	c3.8,1.7,7,4.5,9.2,8.2C183,45.6,184.3,49.9,185.2,54.4z"/>
<path fill="#E5E7EB" d="M164.1,105.7c1,1.7,1.7,3.8,1,5.7c-0.7,1.8-2.5,2.9-4.3,3.3c-1.8,0.4-3.7,0.2-5.6,0c-11.4-1.2-23-1-34.3,0.5
	c11.3,3.1,24,1.2,34.2,7c-6.2,2.5-13.2,0.7-19.7-0.4c-7.9-1.3-15.9-1.3-23.9-1.4c0.4,0.7,1.1,1,1.9,1.3c16.7,6.5,35.5,4.5,52.8,9.4
	c-0.9-9.8,6.1-18.7,6.5-28.5c0-0.4,0-0.8-0.2-1.1c-0.2-0.3-0.5-0.5-0.8-0.7c-2.3-1.4-4.9-2.4-7.5-3c-1.9-0.5-6.4-1.7-8.3-0.7
	c-2.7,1.4,1.5,2.4,2.8,3.2C160.9,101.6,162.7,103.5,164.1,105.7z"/>
<path fill="#E5E7EB" d="M47.9,101.8c-0.7,2.5,7.7,0.7,8.4,0.6c5.8-0.2,7.7,2.3,11,4.4c-7.3-1.3-15.1,0.1-21.6,3.9
	c-1.2,0.7-2.3,1.8-2.9,3.1c-0.2,0.4-0.4,0.9-0.2,1.3c0.1,0.5,0.6,0.9,1,1.2c2.5,1.8,5.3,3,8.3,3.7c2.2,0.5,4.4,0.7,6.6,0.8
	c5.1,0.4,10.2,0.8,15.3,1.2c-13.5,1-26.9,3.8-39.7,8.4c-0.3,0.1-0.6,0.2-0.9,0c-0.2-0.1-0.3-0.4-0.4-0.6c-2.3-8.1-4.7-16.2-7-24.3
	c-0.4-1.5-0.8-3.3,0.1-4.6c0.8-1,2.2-1.4,3.5-1.6c3.9-0.7,7.8-1.2,11.7-1.5c3.3-0.3,6.7-0.4,9.9-1.4c2-0.6,3.8-1.4,5.8-2
	c4.8-1.6,10.4-1.7,15.3-0.1C69.4,95.1,48.5,99.6,47.9,101.8z"/>
<path fill="#47B61A" d="M97.9,148.2c-2.8,3.6-3.6,8.4-2.6,12.8c1.1,5.2,3.6,9.2,5.9,11.7c4.6,5,15.6,13.2,26.9,15.4
	c15.9,3,39.5-1.8,47.4-17.8c1.7-3.5,2.5-7.3,2.3-11.1c-0.2-4.5-1.7-9.2-4.9-12.4c-5.3-5.4-15.2-6.1-20.9,0c-2,2.1-3.1,5-2.9,7.8
	c0.2,3,1.7,5.7,3.6,7.9c0.9,1,2.4,2.7,3.9,2.4c1.3-0.2,1.6-1.1,1.7-1.9c0.2-2.1-1.9-3.6-2.7-5.4c-0.9-2-1.1-4.6,0.1-6.6
	c1.3-2.1,3.9-2.7,6.2-2c6.9,2.1,9.8,14.1,2.5,17.7c-3.2,1.6-7.7,1.8-11,0.5c-8.2-3.2-14.5-11-21.2-16.6c-6.3-5.3-14.4-9.5-22.8-8.2
	C105.1,143.1,100.9,144.3,97.9,148.2z"/>
<path fill="#47B61A" d="M94.9,148.2c2.8,3.6,3.6,8.4,2.6,12.8c-1.1,5.2-3.6,9.2-5.9,11.7c-4.6,5-15.6,13.2-26.9,15.4
	c-15.9,3-39.5-1.8-47.4-17.8c-1.7-3.5-2.5-7.3-2.3-11.1c0.2-4.5,1.7-9.2,4.9-12.4c5.3-5.4,15.2-6.1,20.9,0c2,2.1,3.1,5,2.9,7.8
	c-0.2,3-1.7,5.7-3.6,7.9c-0.9,1-2.4,2.7-3.9,2.4c-1.3-0.2-1.6-1.1-1.7-1.9c-0.2-2.1,1.9-3.6,2.7-5.4c0.9-2,1.1-4.6-0.1-6.6
	c-1.3-2.1-3.9-2.7-6.2-2c-6.9,2.1-9.8,14.1-2.5,17.7c3.2,1.6,7.7,1.8,11,0.5c8.2-3.2,14.5-11,21.2-16.6c6.3-5.3,14.4-9.5,22.8-8.2
	C87.7,143.1,91.8,144.3,94.9,148.2z"/>
<g>
	<path fill="#FFFFFF" d="M94.3,159c0,0-0.1,0.4-0.2,1.1c-0.2,0.7-0.5,1.8-1,3.1c-0.5,1.3-1.2,2.8-2.3,4.5c-1.1,1.7-2.6,3.3-4.3,4.9
		c-1.8,1.6-3.8,3.2-6.1,4.8c-2.3,1.5-4.8,3-7.5,4.3c-2.7,1.2-5.7,2.3-8.8,2.9c-3.1,0.6-6.3,0.8-9.5,0.8c-3.2,0-6.4-0.4-9.5-1
		c-3.1-0.6-6.1-1.5-8.9-2.6c-1.4-0.6-2.8-1.2-4-1.9c-0.6-0.4-1.3-0.7-1.9-1.1c-0.6-0.4-1.2-0.8-1.7-1.2c-0.6-0.4-1.1-0.8-1.6-1.3
		c-0.5-0.4-1-0.8-1.5-1.3c-0.4-0.5-0.9-0.9-1.3-1.4c-0.2-0.2-0.4-0.5-0.6-0.7c-0.2-0.2-0.4-0.5-0.6-0.7c-0.7-1-1.5-1.9-1.9-2.9
		c-0.5-1-1.1-1.9-1.4-2.8c-0.7-1.8-1.1-3.5-1.3-4.9c-0.2-1.4-0.2-2.5-0.2-3.2c0-0.7,0-1.1,0-1.1s0,0.4,0,1.1c0,0.7,0.1,1.8,0.4,3.2
		c0.2,1.4,0.7,3,1.4,4.8c0.4,0.9,0.9,1.8,1.5,2.7c0.5,1,1.2,1.8,2,2.7c0.2,0.2,0.4,0.5,0.6,0.7c0.2,0.2,0.4,0.4,0.6,0.6
		c0.4,0.4,0.9,0.9,1.3,1.3c0.5,0.4,1,0.8,1.5,1.2c0.5,0.4,1,0.8,1.6,1.2c0.6,0.4,1.1,0.7,1.7,1.1c0.6,0.4,1.2,0.7,1.8,1
		c1.2,0.7,2.6,1.2,3.9,1.8c2.8,1,5.7,1.9,8.7,2.5c3,0.5,6.2,0.9,9.3,0.9c3.2,0,6.3-0.1,9.4-0.7c3-0.5,5.9-1.6,8.6-2.8
		c5.4-2.4,10-5.6,13.6-8.7c1.8-1.6,3.3-3.1,4.4-4.7c1.1-1.6,1.9-3.1,2.4-4.3c0.5-1.3,0.9-2.3,1.1-3C94.2,159.3,94.3,159,94.3,159z"
		/>
</g>
<g>
	<path fill="#FFFFFF" d="M99.4,159c0,0,0.1,0.4,0.3,1.1c0.2,0.7,0.6,1.8,1.1,3c0.6,1.3,1.3,2.8,2.4,4.3c1.1,1.6,2.6,3.1,4.4,4.7
		c3.6,3.1,8.2,6.2,13.6,8.7c2.7,1.2,5.6,2.2,8.6,2.8c3.1,0.6,6.2,0.7,9.4,0.7c3.2,0,6.3-0.4,9.3-0.9c3.1-0.6,6-1.5,8.7-2.5
		c1.3-0.6,2.7-1.1,3.9-1.8c0.6-0.3,1.3-0.6,1.8-1c0.6-0.4,1.2-0.8,1.7-1.1c0.6-0.3,1.1-0.8,1.6-1.2c0.5-0.4,1-0.8,1.5-1.2
		c0.4-0.5,0.9-0.9,1.3-1.3c0.2-0.2,0.4-0.4,0.6-0.6c0.2-0.2,0.4-0.5,0.6-0.7c0.7-0.9,1.5-1.8,2-2.7c0.6-0.9,1.1-1.8,1.5-2.7
		c0.8-1.8,1.2-3.4,1.4-4.8c0.2-1.4,0.3-2.5,0.4-3.2c0-0.7,0-1.1,0-1.1s0,0.4,0,1.1c0,0.7,0,1.8-0.2,3.2c-0.2,1.4-0.6,3.1-1.3,4.9
		c-0.3,0.9-0.9,1.8-1.4,2.8c-0.5,1-1.2,1.9-1.9,2.9c-0.2,0.2-0.4,0.5-0.6,0.7c-0.2,0.2-0.4,0.4-0.6,0.7c-0.4,0.5-0.9,0.9-1.3,1.4
		c-0.5,0.4-1,0.9-1.5,1.3c-0.5,0.4-1,0.9-1.6,1.3c-0.6,0.4-1.1,0.8-1.7,1.2c-0.6,0.4-1.2,0.7-1.9,1.1c-1.2,0.8-2.6,1.3-4,1.9
		c-2.8,1.1-5.8,2-8.9,2.6c-3.1,0.6-6.3,1-9.5,1c-3.2,0-6.5-0.2-9.5-0.8c-3.2-0.6-6.1-1.7-8.8-2.9c-2.7-1.2-5.2-2.7-7.5-4.3
		c-2.3-1.5-4.3-3.2-6.1-4.8c-1.8-1.6-3.3-3.2-4.3-4.9c-1.1-1.6-1.8-3.2-2.3-4.5c-0.5-1.3-0.8-2.4-1-3.1
		C99.5,159.3,99.4,159,99.4,159z"/>
</g>
<rect x="435.5" y="44.1" fill="#47B61A" width="38.7" height="4.3"/>
<path fill="#292929" d="M10.3,79.5c0.1,0.5,0.2,0.9,0.3,1.4L11,82l0.1,0.3l0,0.1l0,0.1c0,0,0.1,0.2,0,0.1l0,0l0.3,0.6
	c0.2,0.4,0.3,0.8,0.6,1.2c0.8,1.6,1.8,3,2.9,4.3c2.2,2.6,4.9,4.6,7.5,6.3c2.5,1.7,5.1,3,7.6,4.2c1.2-0.3,2.4-0.6,3.7-0.9
	c-0.8-0.4-1.5-0.8-2.3-1.2c-2.4-1.3-4.9-2.8-7.3-4.5c-2.4-1.7-4.7-3.7-6.6-6c-0.9-1.2-1.8-2.4-2.5-3.7c-0.2-0.3-0.3-0.7-0.5-1
	l-0.2-0.5l0,0l0,0l0-0.1L14.2,81l-0.4-1.2c-0.1-0.4-0.1-0.7-0.2-1c-0.2-0.6-0.2-1.4-0.3-2.1c0-0.7-0.1-1.5,0.1-2.2
	c0.1-1.5,0.5-2.9,0.9-4.3c1-2.8,2.5-5.4,4.3-7.7c1.8-2.3,3.8-4.3,6-6c2.1-1.6,4.3-3.1,6.3-4.3c2.1-1.2,4.1-2.1,5.9-2.8
	c1.8-0.7,3.5-1.1,4.8-1.4c1.4-0.3,2.5-0.4,3.2-0.4c0.8,0,1.2,0,1.2,0s-0.4,0-1.2-0.1c-0.8-0.1-1.9-0.1-3.3-0.1
	c-1.4,0.1-3.2,0.3-5.1,0.8c-2,0.5-4.1,1.2-6.4,2.3c-2.3,1-4.6,2.3-7,4c-2.3,1.7-4.7,3.7-6.7,6.1c-2.1,2.4-3.9,5.3-5.1,8.5
	c-0.5,1.6-1,3.3-1.1,5.1C10,75.1,10,76,10,76.8C10.1,77.7,10.1,78.6,10.3,79.5z"/>
<path fill="#292929" d="M39.1,71.7c0.1,0.6,0.3,1.4,0.5,2.3c0.1,0.4,0.3,0.9,0.4,1.4c0.2,0.5,0.4,1,0.5,1.5c0.2,0.5,0.4,1,0.7,1.6
	c0.3,0.5,0.5,1.1,0.8,1.7c0.3,0.6,0.7,1.1,1,1.7c0.4,0.6,0.8,1.1,1.2,1.7c0.2,0.3,0.4,0.6,0.6,0.9c0.2,0.3,0.5,0.5,0.7,0.8
	c0.5,0.5,1,1.1,1.5,1.6c0.6,0.5,1.1,1,1.7,1.5c0.6,0.5,1.1,1,1.8,1.4c1.3,0.8,2.5,1.8,3.8,2.4c1.2,0.6,2.3,1.3,3.5,1.8
	c4.6-0.6,9.4-1.2,14.4-1.6c-0.2,0-0.4,0-0.6-0.1c-0.6-0.1-1.3-0.1-2.2-0.2c-0.4,0-0.9-0.1-1.4-0.1c-0.5,0-1-0.2-1.5-0.2
	c-1-0.2-2.1-0.4-3.3-0.6c-1.2-0.2-2.4-0.6-3.6-0.9c-1.3-0.3-2.5-0.8-3.8-1.3c-1.3-0.4-2.5-1.1-3.8-1.7c-0.6-0.3-1.2-0.7-1.8-1.1
	c-0.6-0.4-1.2-0.8-1.7-1.1c-0.5-0.4-1.1-0.9-1.6-1.3c-0.3-0.2-0.5-0.4-0.8-0.6c-0.2-0.2-0.5-0.5-0.7-0.7c-0.5-0.5-0.9-0.9-1.3-1.4
	c-0.4-0.5-0.8-1-1.2-1.5c-0.4-0.5-0.7-1-1-1.5c-0.3-0.5-0.6-0.9-0.9-1.4c-0.2-0.5-0.5-0.9-0.7-1.4c-0.2-0.5-0.4-0.9-0.5-1.3
	c-0.3-0.8-0.6-1.5-0.8-2.1C39.2,71,39,70.5,39,70.2c-0.1-0.3-0.2-0.5-0.2-0.5s0,0.2,0.1,0.5C38.9,70.6,39,71.1,39.1,71.7z"/>
<path fill="#292929" d="M78.1,80c0.1,0.5,0.2,1,0.5,1.6c0.2,0.6,0.5,1.3,0.9,2c0.4,0.7,0.8,1.5,1.4,2.2c0.5,0.8,1.2,1.5,1.9,2.3
	c0.8,0.7,1.5,1.5,2.4,2.1c0.4,0.3,0.9,0.7,1.3,1c0,0,0.1,0,0.1,0.1c2.9-0.1,5.8-0.1,8.8-0.1c-0.2,0-0.3-0.1-0.5-0.1
	c-0.5-0.1-0.9-0.2-1.4-0.3c-0.5-0.1-0.9-0.3-1.4-0.4c-0.5-0.1-1-0.3-1.4-0.4c-0.5-0.2-0.9-0.4-1.4-0.5c-0.5-0.2-1-0.4-1.4-0.6
	c-0.4-0.2-0.9-0.5-1.3-0.7c-0.9-0.4-1.7-1-2.5-1.5c-0.7-0.6-1.5-1.1-2.1-1.7c-0.7-0.6-1.2-1.2-1.7-1.8c-0.4-0.6-0.9-1.2-1.2-1.8
	c-0.3-0.5-0.5-1.1-0.7-1.5c-0.2-0.4-0.3-0.8-0.4-1c-0.1-0.2-0.1-0.3-0.1-0.3s0,0.1,0.1,0.4C77.9,79.2,78,79.5,78.1,80z"/>
<g>
	<path fill="#292929" d="M131.4,83.7c0.9,2.1,2.2,4.2,4,6.3c1.5,1.8,3.4,3.6,5.6,5.2c2.1,0.4,4.3,0.8,6.5,1.2
		c-1.5-0.7-2.9-1.5-4.3-2.3c-2.5-1.6-4.7-3.3-6.6-5.2c-1.8-1.9-3.2-3.8-4.2-5.6c-1-1.9-1.5-3.6-1.8-5.2c-0.2-1.5-0.2-2.7-0.1-3.6
		c0-0.4,0.1-0.7,0.1-0.9c0-0.2,0.1-0.3,0.1-0.3s0,0.1-0.1,0.3c-0.1,0.2-0.2,0.5-0.2,0.9c-0.2,0.8-0.4,2.1-0.3,3.6
		C130.2,79.7,130.5,81.6,131.4,83.7z"/>
	<path fill="#292929" d="M195.2,82c-0.7-1.4-1.5-2.6-2.4-3.7c-1.8-2.1-4-3.5-5.9-4.6c-1.9-1.1-3.7-1.8-5.2-2.3
		c-1.5-0.5-2.7-0.7-3.5-0.9c-0.8-0.2-1.3-0.2-1.3-0.2s0.4,0.1,1.2,0.4c0.8,0.3,1.9,0.7,3.3,1.3c1.4,0.6,3.1,1.5,4.8,2.7
		c1.8,1.2,3.6,2.7,5.2,4.7c1.5,2,2.7,4.6,2.6,7.3c-0.1,1.3-0.5,2.7-1.2,3.9c-0.4,0.6-0.8,1.2-1.3,1.7c-0.2,0.3-0.5,0.6-0.8,0.8
		c-0.3,0.2-0.5,0.5-0.9,0.8c-2.5,2-5.4,3.6-8.5,4.8c-3.1,1.2-6.5,2-9.9,2.2c-1.1,0.1-2.3,0.1-3.4,0.1c2.6,0.7,5.2,1.4,7.8,2.2
		c2.3-0.4,4.5-1.1,6.6-1.9c3.4-1.4,6.5-3.3,9.1-5.5c0.3-0.3,0.6-0.6,1-0.9c0.3-0.3,0.6-0.7,0.9-1c0.6-0.7,1.1-1.4,1.5-2.2
		c0.8-1.6,1.3-3.3,1.3-5.1C196.2,85,195.8,83.4,195.2,82z"/>
</g>
</svg>
